<svg width="232" height="41" viewBox="0 0 232 41" fill="none" xmlns="http://www.w3.org/2000/svg">
<path d="M82.1494 21.6967C80.4915 24.3862 78.1336 25.9335 75.0757 25.9335C70.6547 25.9335 67.4126 22.3599 67.4126 17.7546C67.4126 13.1494 70.5073 9.61255 75.1494 9.61255C78.0967 9.61255 80.7494 11.2704 82.0757 13.7757L86.3493 10.3862C84.1757 6.51782 80.2336 4.19678 75.2231 4.19678C67.1915 4.19678 61.5547 10.1652 61.5547 17.7546C61.5547 25.3441 67.302 31.3493 75.1494 31.3493C80.0862 31.3493 84.2125 28.7335 86.4599 25.0125L82.1494 21.6967Z" fill="#193150"/>
<path d="M98.1629 11.5652C92.2682 11.5652 88.0314 15.8388 88.0314 21.4388C88.0314 27.002 92.2682 31.3493 98.1629 31.3493C104.058 31.3493 108.294 27.002 108.294 21.4388C108.294 15.8388 104.058 11.5652 98.1629 11.5652ZM98.1629 16.5388C100.705 16.5388 102.621 18.4915 102.621 21.4388C102.621 24.3862 100.705 26.3756 98.1629 26.3756C95.6208 26.3756 93.7051 24.3862 93.7051 21.4388C93.7051 18.4915 95.6208 16.5388 98.1629 16.5388Z" fill="#193150"/>
<path d="M111.955 12.0073V30.9072H117.555V21.0704C117.555 18.602 118.844 16.502 121.202 16.502C123.265 16.502 124.592 17.7915 124.592 20.2599V30.9072H130.192V21.0704C130.192 18.602 131.481 16.502 133.839 16.502C135.902 16.502 137.192 17.7915 137.192 20.2599V30.9072H142.792V19.4125C142.792 14.5125 140.028 11.5652 135.497 11.5652C132.292 11.5652 130.486 12.9652 129.123 14.8809C127.834 12.781 125.771 11.5652 122.86 11.5652C120.392 11.5652 118.55 12.5231 117.334 14.4388V12.0073H111.955Z" fill="#193150"/>
<path d="M157.484 16.502C159.879 16.502 161.868 18.4546 161.868 21.5125C161.868 24.4599 159.879 26.4125 157.484 26.4125C154.979 26.4125 153.026 24.4967 153.026 21.5125C153.026 18.4178 154.979 16.502 157.484 16.502ZM152.768 12.0073H147.573V38.2756H153.173V28.8441C154.352 30.6125 156.6 31.3493 158.626 31.3493C163.784 31.3493 167.505 27.0756 167.505 21.4388C167.505 15.6178 163.489 11.5652 158.663 11.5652C156.821 11.5652 154.242 12.3389 152.768 14.6231V12.0073Z" fill="#193150"/>
<path d="M180.975 19.1546L175.817 20.1493C171.839 20.9967 169.665 22.9125 169.665 25.7125C169.665 28.9914 172.244 31.3493 175.928 31.3493C178.433 31.3493 180.275 30.244 181.16 28.5862V30.9072H186.354V19.0072C186.354 14.402 183.223 11.5652 177.954 11.5652C174.417 11.5652 171.581 13.0389 169.849 15.1388L172.76 18.6757C173.902 17.3862 175.523 16.3915 177.623 16.3915C179.539 16.3915 180.975 17.1283 180.975 19.0072V19.1546ZM177.181 27.1862C175.854 27.1862 175.007 26.4493 175.007 25.3809C175.007 24.3493 175.744 23.6862 177.254 23.4283L181.012 22.6914V23.2441C181.012 25.4914 179.502 27.1862 177.181 27.1862Z" fill="#193150"/>
<path d="M191.071 12.0073V30.9072H196.671V21.0704C196.671 18.602 197.961 16.502 200.393 16.502C202.456 16.502 203.782 17.7915 203.782 20.2599V30.9072H209.382V19.4125C209.382 14.5125 206.582 11.5652 202.05 11.5652C199.508 11.5652 197.666 12.5231 196.45 14.4388V12.0073H191.071Z" fill="#193150"/>
<path d="M218.526 30.2072L218.305 30.8335C217.494 33.523 216.131 34.0019 214.657 34.0019C214.031 34.0019 213.073 33.9282 212.078 33.3756V38.0177C212.926 38.423 214.141 38.7177 215.468 38.7177C219.041 38.7177 221.326 37.023 223.205 32.4546L231.457 12.0073H225.747L221.326 24.3862L216.941 12.0073H211.084L218.526 30.2072Z" fill="#193150"/>
<g filter="url(#filter0_d)">
<path d="M28.5156 1.6377H22.0192C21.5755 1.6377 21.2158 1.99736 21.2158 2.44103V34.3616C21.2158 34.8053 21.5755 35.1649 22.0192 35.1649H28.5156C28.9593 35.1649 29.3189 34.8053 29.3189 34.3616V2.44103C29.3189 1.99736 28.9593 1.6377 28.5156 1.6377Z" fill="#1C7DF8"/>
</g>
<g filter="url(#filter1_d)">
<path d="M40.1916 35.1648C43.9957 35.1648 47.0796 32.0809 47.0796 28.2768C47.0796 24.4727 43.9957 21.3889 40.1916 21.3889C36.3875 21.3889 33.3037 24.4727 33.3037 28.2768C33.3037 32.0809 36.3875 35.1648 40.1916 35.1648Z" fill="#72D962"/>
</g>
<g filter="url(#filter2_d)">
<path d="M40.1916 15.4135C43.9957 15.4135 47.0796 12.3297 47.0796 8.52562C47.0796 4.72152 43.9957 1.6377 40.1916 1.6377C36.3875 1.6377 33.3037 4.72152 33.3037 8.52562C33.3037 12.3297 36.3875 15.4135 40.1916 15.4135Z" fill="#FFCD1D"/>
</g>
<g filter="url(#filter3_d)">
<path d="M10.345 35.1648C14.149 35.1648 17.2329 32.0809 17.2329 28.2768C17.2329 24.4727 14.149 21.3889 10.345 21.3889C6.54086 21.3889 3.45703 24.4727 3.45703 28.2768C3.45703 32.0809 6.54086 35.1648 10.345 35.1648Z" fill="#1C7DF8"/>
</g>
<defs>
<filter id="filter0_d" x="18.0994" y="0.858595" width="14.3359" height="39.7601" filterUnits="userSpaceOnUse" color-interpolation-filters="sRGB">
<feFlood flood-opacity="0" result="BackgroundImageFix"/>
<feColorMatrix in="SourceAlpha" type="matrix" values="0 0 0 0 0 0 0 0 0 0 0 0 0 0 0 0 0 0 127 0"/>
<feOffset dy="2.3373"/>
<feGaussianBlur stdDeviation="1.5582"/>
<feColorMatrix type="matrix" values="0 0 0 0 0.109219 0 0 0 0 0.491032 0 0 0 0 0.970833 0 0 0 0.21 0"/>
<feBlend mode="normal" in2="BackgroundImageFix" result="effect1_dropShadow"/>
<feBlend mode="normal" in="SourceGraphic" in2="effect1_dropShadow" result="shape"/>
</filter>
<filter id="filter1_d" x="30.1873" y="20.6098" width="20.0086" height="20.0086" filterUnits="userSpaceOnUse" color-interpolation-filters="sRGB">
<feFlood flood-opacity="0" result="BackgroundImageFix"/>
<feColorMatrix in="SourceAlpha" type="matrix" values="0 0 0 0 0 0 0 0 0 0 0 0 0 0 0 0 0 0 127 0"/>
<feOffset dy="2.3373"/>
<feGaussianBlur stdDeviation="1.5582"/>
<feColorMatrix type="matrix" values="0 0 0 0 0.44795 0 0 0 0 0.85 0 0 0 0 0.3825 0 0 0 0.24 0"/>
<feBlend mode="normal" in2="BackgroundImageFix" result="effect1_dropShadow"/>
<feBlend mode="normal" in="SourceGraphic" in2="effect1_dropShadow" result="shape"/>
</filter>
<filter id="filter2_d" x="30.1873" y="0.858595" width="20.0086" height="20.0086" filterUnits="userSpaceOnUse" color-interpolation-filters="sRGB">
<feFlood flood-opacity="0" result="BackgroundImageFix"/>
<feColorMatrix in="SourceAlpha" type="matrix" values="0 0 0 0 0 0 0 0 0 0 0 0 0 0 0 0 0 0 127 0"/>
<feOffset dy="2.3373"/>
<feGaussianBlur stdDeviation="1.5582"/>
<feColorMatrix type="matrix" values="0 0 0 0 1 0 0 0 0 0.80475 0 0 0 0 0.1125 0 0 0 0.27 0"/>
<feBlend mode="normal" in2="BackgroundImageFix" result="effect1_dropShadow"/>
<feBlend mode="normal" in="SourceGraphic" in2="effect1_dropShadow" result="shape"/>
</filter>
<filter id="filter3_d" x="0.340628" y="20.6098" width="20.0086" height="20.0086" filterUnits="userSpaceOnUse" color-interpolation-filters="sRGB">
<feFlood flood-opacity="0" result="BackgroundImageFix"/>
<feColorMatrix in="SourceAlpha" type="matrix" values="0 0 0 0 0 0 0 0 0 0 0 0 0 0 0 0 0 0 127 0"/>
<feOffset dy="2.3373"/>
<feGaussianBlur stdDeviation="1.5582"/>
<feColorMatrix type="matrix" values="0 0 0 0 0.109219 0 0 0 0 0.491032 0 0 0 0 0.970833 0 0 0 0.14 0"/>
<feBlend mode="normal" in2="BackgroundImageFix" result="effect1_dropShadow"/>
<feBlend mode="normal" in="SourceGraphic" in2="effect1_dropShadow" result="shape"/>
</filter>
</defs>
</svg>
